<?xml version="1.0" standalone="no"?>
<!DOCTYPE svg PUBLIC "-//W3C//DTD SVG 20010904//EN"
 "http://www.w3.org/TR/2001/REC-SVG-20010904/DTD/svg10.dtd">
<svg version="1.0" xmlns="http://www.w3.org/2000/svg"
 width="229.000000pt" height="231.000000pt" viewBox="0 0 229.000000 231.000000"
 preserveAspectRatio="xMidYMid meet">
<metadata>
Created by potrace 1.15, written by Peter Selinger 2001-2017
</metadata>
<g transform="translate(0.000000,231.000000) scale(0.100000,-0.100000)"
fill="#000000" stroke="none">
<path d="M870 2156 l-265 -154 0 -327 0 -327 265 -154 c146 -84 272 -154 280
-154 8 0 134 70 280 154 l265 154 0 327 0 327 -265 154 c-146 84 -272 154
-280 154 -8 0 -134 -70 -280 -154z"/>
<path d="M270 1126 l-265 -154 0 -327 0 -327 265 -154 c146 -84 272 -154 280
-154 8 0 134 70 280 154 l265 154 0 327 0 327 -265 154 c-146 84 -272 154
-280 154 -8 0 -134 -70 -280 -154z"/>
<path d="M1460 1116 l-265 -154 0 -327 0 -327 265 -154 c146 -84 272 -154 280
-154 8 0 134 70 280 154 l265 154 0 327 0 327 -265 154 c-146 84 -272 154
-280 154 -8 0 -134 -70 -280 -154z"/>
</g>
</svg>
